<svg width="81" height="81" viewBox="0 0 81 81" fill="none" xmlns="http://www.w3.org/2000/svg">
<path d="M31.2188 74.25L29.8688 63.45C29.1375 63.1688 28.4485 62.8313 27.8016 62.4375C27.1547 62.0437 26.5219 61.6219 25.9032 61.1719L15.8625 65.3906L6.5813 49.3594L15.2719 42.7781C15.2157 42.3844 15.1875 42.0047 15.1875 41.6391V39.3609C15.1875 38.9953 15.2157 38.6156 15.2719 38.2219L6.5813 31.6406L15.8625 15.6094L25.9032 19.8281C26.5219 19.3781 27.1688 18.9563 27.8438 18.5625C28.5188 18.1687 29.1938 17.8313 29.8688 17.55L31.2188 6.75H49.7813L51.1313 17.55C51.8625 17.8313 52.5516 18.1687 53.1985 18.5625C53.8454 18.9563 54.4782 19.3781 55.0969 19.8281L65.1376 15.6094L74.4188 31.6406L65.7282 38.2219C65.7844 38.6156 65.8126 38.9953 65.8126 39.3609V41.6391C65.8126 42.0047 65.7563 42.3844 65.6438 42.7781L74.3344 49.3594L65.0532 65.3906L55.0969 61.1719C54.4782 61.6219 53.8313 62.0437 53.1563 62.4375C52.4813 62.8313 51.8063 63.1688 51.1313 63.45L49.7813 74.25H31.2188ZM40.6688 52.3125C43.9313 52.3125 46.7157 51.1594 49.0219 48.8531C51.3282 46.5469 52.4813 43.7625 52.4813 40.5C52.4813 37.2375 51.3282 34.4531 49.0219 32.1469C46.7157 29.8406 43.9313 28.6875 40.6688 28.6875C37.3501 28.6875 34.5516 29.8406 32.2735 32.1469C29.9954 34.4531 28.8563 37.2375 28.8563 40.5C28.8563 43.7625 29.9954 46.5469 32.2735 48.8531C34.5516 51.1594 37.3501 52.3125 40.6688 52.3125Z" fill="#F0F14E"/>
</svg>
